<svg width="266" height="150" viewBox="0 0 266 150" fill="none" xmlns="http://www.w3.org/2000/svg">
<path d="M168.228 63.7019C167.962 63.068 167.515 62.5263 166.943 62.1439C166.372 61.7614 165.701 61.555 165.013 61.5501H100.839C99.9169 61.5506 99.0323 61.9173 98.38 62.5698C97.7277 63.2223 97.3611 64.1072 97.3606 65.0299V146.243C97.3611 147.166 97.7277 148.05 98.38 148.703C99.0323 149.355 99.9169 149.722 100.839 149.723H165.016C165.938 149.721 166.822 149.354 167.474 148.702C168.126 148.05 168.493 147.165 168.494 146.243V65.0299C168.496 64.5741 168.406 64.1225 168.231 63.7019H168.228ZM167.72 146.243C167.719 146.96 167.433 147.649 166.926 148.156C166.419 148.664 165.731 148.949 165.013 148.95H100.839C100.122 148.95 99.4335 148.665 98.9261 148.157C98.4186 147.649 98.1334 146.961 98.1331 146.243V65.0304C98.1341 64.3127 98.4195 63.6248 98.9268 63.1173C99.4341 62.6098 100.122 62.3243 100.839 62.3233H165.016C165.556 62.3254 166.084 62.4885 166.531 62.7918C166.978 63.0951 167.325 63.5249 167.528 64.0263C167.567 64.1262 167.601 64.2281 167.629 64.3317C167.691 64.5595 167.722 64.7944 167.722 65.0304L167.72 146.243Z" fill="#3F3D56"/>
<path d="M154.836 80.7241H135.506C135.096 80.7241 134.702 80.5611 134.412 80.271C134.122 79.9809 133.959 79.5874 133.959 79.1771C133.959 78.7669 134.122 78.3734 134.412 78.0833C134.702 77.7931 135.096 77.6302 135.506 77.6302H154.836C155.246 77.6302 155.64 77.7931 155.93 78.0833C156.22 78.3734 156.383 78.7669 156.383 79.1771C156.383 79.5874 156.22 79.9809 155.93 80.271C155.64 80.5611 155.246 80.7241 154.836 80.7241Z" fill="#3F3D56"/>
<path d="M154.836 88.8454H135.506C135.096 88.8454 134.702 88.6825 134.412 88.3924C134.122 88.1022 133.959 87.7088 133.959 87.2985C133.959 86.8882 134.122 86.4947 134.412 86.2046C134.702 85.9145 135.096 85.7515 135.506 85.7515H154.836C155.246 85.7515 155.64 85.9145 155.93 86.2046C156.22 86.4947 156.383 86.8882 156.383 87.2985C156.383 87.7088 156.22 88.1022 155.93 88.3924C155.64 88.6825 155.246 88.8454 154.836 88.8454Z" fill="#3F3D56"/>
<path d="M125.588 93.4697H111.462C111 93.4692 110.558 93.2856 110.232 92.9594C109.906 92.6331 109.722 92.1907 109.722 91.7293V75.0536C109.722 74.5921 109.906 74.1497 110.232 73.8234C110.558 73.4972 111 73.3136 111.462 73.3132H125.588C126.049 73.3136 126.491 73.4972 126.818 73.8234C127.144 74.1497 127.327 74.5921 127.328 75.0536V91.7293C127.327 92.1907 127.144 92.6331 126.818 92.9594C126.491 93.2856 126.049 93.4692 125.588 93.4697Z" fill="#09AF9F"/>
<path d="M154.702 105.475H111.016C110.606 105.475 110.212 105.312 109.922 105.022C109.632 104.732 109.469 104.338 109.469 103.928C109.469 103.518 109.632 103.124 109.922 102.834C110.212 102.544 110.606 102.381 111.016 102.381H154.702C154.905 102.381 155.106 102.421 155.294 102.499C155.481 102.576 155.652 102.69 155.795 102.834C155.939 102.978 156.053 103.148 156.131 103.336C156.208 103.524 156.248 103.725 156.248 103.928C156.248 104.131 156.208 104.332 156.131 104.52C156.053 104.708 155.939 104.878 155.795 105.022C155.652 105.165 155.481 105.279 155.294 105.357C155.106 105.435 154.905 105.475 154.702 105.475Z" fill="#CCCCCC"/>
<path d="M154.702 113.596H111.016C110.606 113.596 110.212 113.433 109.922 113.143C109.632 112.853 109.469 112.459 109.469 112.049C109.469 111.639 109.632 111.245 109.922 110.955C110.212 110.665 110.606 110.502 111.016 110.502H154.702C155.112 110.502 155.505 110.665 155.795 110.955C156.085 111.245 156.248 111.639 156.248 112.049C156.248 112.459 156.085 112.853 155.795 113.143C155.505 113.433 155.112 113.596 154.702 113.596Z" fill="#CCCCCC"/>
<path d="M154.702 121.717H111.016C110.606 121.717 110.212 121.554 109.922 121.264C109.632 120.974 109.469 120.581 109.469 120.17C109.469 119.76 109.632 119.367 109.922 119.077C110.212 118.786 110.606 118.623 111.016 118.623H154.702C155.112 118.623 155.505 118.786 155.795 119.077C156.085 119.367 156.248 119.76 156.248 120.17C156.248 120.581 156.085 120.974 155.795 121.264C155.505 121.554 155.112 121.717 154.702 121.717Z" fill="#CCCCCC"/>
<path d="M154.702 129.839H111.016C110.606 129.839 110.212 129.676 109.922 129.386C109.632 129.096 109.469 128.702 109.469 128.292C109.469 127.881 109.632 127.488 109.922 127.198C110.212 126.908 110.606 126.745 111.016 126.745H154.702C155.112 126.745 155.505 126.908 155.795 127.198C156.085 127.488 156.248 127.881 156.248 128.292C156.248 128.702 156.085 129.096 155.795 129.386C155.505 129.676 155.112 129.839 154.702 129.839Z" fill="#CCCCCC"/>
<path d="M154.702 137.96H111.016C110.606 137.96 110.212 137.797 109.922 137.507C109.632 137.217 109.469 136.823 109.469 136.413C109.469 136.003 109.632 135.609 109.922 135.319C110.212 135.029 110.606 134.866 111.016 134.866H154.702C155.112 134.866 155.505 135.029 155.795 135.319C156.085 135.609 156.248 136.003 156.248 136.413C156.248 136.823 156.085 137.217 155.795 137.507C155.505 137.797 155.112 137.96 154.702 137.96Z" fill="#CCCCCC"/>
<path d="M134.013 41.9826C142.256 41.9826 148.938 35.2985 148.938 27.0533C148.938 18.8081 142.256 12.1241 134.013 12.1241C125.771 12.1241 119.089 18.8081 119.089 27.0533C119.089 35.2985 125.771 41.9826 134.013 41.9826Z" fill="#09AF9F"/>
<path d="M132.534 32.7484C132.198 32.749 131.872 32.6404 131.603 32.4389L131.586 32.4264L128.079 29.7424C127.916 29.6179 127.78 29.4626 127.677 29.2853C127.574 29.1079 127.508 28.9121 127.481 28.709C127.454 28.5059 127.467 28.2995 127.52 28.1015C127.573 27.9036 127.664 27.718 127.789 27.5554C127.914 27.3928 128.069 27.2563 128.246 27.1538C128.424 27.0514 128.62 26.9848 128.823 26.9581C129.026 26.9314 129.232 26.945 129.43 26.9981C129.628 27.0512 129.813 27.1428 129.976 27.2676L132.247 29.0103L137.616 22.0043C137.867 21.6762 138.239 21.4616 138.648 21.4074C139.058 21.3533 139.472 21.4642 139.8 21.7157L139.801 21.716L139.767 21.7623L139.802 21.716C140.129 21.9678 140.344 22.3394 140.398 22.7492C140.452 23.1589 140.341 23.5734 140.09 23.9016L133.775 32.1385C133.629 32.3283 133.441 32.4819 133.226 32.5874C133.011 32.6928 132.775 32.7473 132.536 32.7466L132.534 32.7484Z" fill="white"/>
<path d="M35.7574 20.2333C41.3428 20.2333 45.8707 15.7039 45.8707 10.1167C45.8707 4.52939 41.3428 0 35.7574 0C30.1719 0 25.644 4.52939 25.644 10.1167C25.644 15.7039 30.1719 20.2333 35.7574 20.2333Z" fill="#CCCCCC"/>
<path d="M34.7548 13.9755C34.5273 13.9759 34.3059 13.9023 34.1238 13.7659L34.1127 13.7576L31.7359 11.9371C31.52 11.7645 31.3804 11.5142 31.3469 11.2398C31.3134 10.9654 31.3888 10.6888 31.5568 10.4694C31.7249 10.2499 31.9722 10.1051 32.2458 10.066C32.5193 10.0268 32.7973 10.0965 33.0201 10.2601L34.5596 11.441L38.1975 6.69505C38.3679 6.4728 38.6195 6.32734 38.8971 6.29068C39.1746 6.25402 39.4554 6.32916 39.6775 6.49958L39.6778 6.49977L39.6551 6.53032L39.6783 6.50024C39.9002 6.67091 40.0454 6.92266 40.082 7.20027C40.1186 7.47788 40.0436 7.75867 39.8735 7.98105L35.5944 13.5637C35.4955 13.6923 35.3682 13.7965 35.2226 13.868C35.0769 13.9395 34.9167 13.9764 34.7544 13.976L34.7548 13.9755Z" fill="white"/>
<path d="M64.177 33.8373C63.967 33.3386 63.6154 32.9125 63.1659 32.6116C62.7163 32.3107 62.1884 32.1481 61.6475 32.1441H11.1498C10.424 32.1445 9.72796 32.433 9.21471 32.9465C8.70147 33.4599 8.41297 34.1561 8.4126 34.8822V98.7849C8.41297 99.5109 8.70147 100.207 9.21471 100.721C9.72796 101.234 10.424 101.523 11.1498 101.523H61.6475C62.3732 101.522 63.0688 101.233 63.5819 100.72C64.0951 100.207 64.3838 99.5108 64.3847 98.7849V34.8822C64.3859 34.5235 64.3152 34.1682 64.177 33.8373ZM63.7769 98.7853C63.7758 99.3496 63.5512 99.8903 63.1524 100.289C62.7536 100.688 62.213 100.913 61.6489 100.914H11.1498C10.5854 100.914 10.0442 100.69 9.64511 100.291C9.24604 99.8913 9.02184 99.3499 9.02184 98.7853V34.8822C9.02294 34.318 9.24749 33.7772 9.64632 33.3782C10.0452 32.9793 10.5858 32.7546 11.1498 32.7535H61.6475C62.0731 32.7553 62.4884 32.8839 62.8405 33.1229C63.1926 33.362 63.4654 33.7006 63.6242 34.0955C63.6552 34.1741 63.6819 34.2542 63.7042 34.3357C63.7527 34.5149 63.7773 34.6997 63.7773 34.8854L63.7769 98.7853Z" fill="#CCCCCC"/>
<path d="M53.6376 47.2308H38.4273C38.1046 47.2308 37.7951 47.1026 37.5669 46.8744C37.3387 46.6462 37.2104 46.3367 37.2104 46.0139C37.2104 45.6912 37.3387 45.3817 37.5669 45.1535C37.7951 44.9253 38.1046 44.7971 38.4273 44.7971H53.6371C53.9598 44.7971 54.2694 44.9253 54.4976 45.1535C54.7258 45.3817 54.854 45.6912 54.854 46.0139C54.854 46.3367 54.7258 46.6462 54.4976 46.8744C54.2694 47.1026 53.9598 47.2308 53.6371 47.2308H53.6376Z" fill="#CCCCCC"/>
<path d="M53.6376 53.6214H38.4273C38.1046 53.6214 37.7951 53.4932 37.5669 53.265C37.3387 53.0368 37.2104 52.7273 37.2104 52.4045C37.2104 52.0818 37.3387 51.7723 37.5669 51.5441C37.7951 51.3159 38.1046 51.1877 38.4273 51.1877H53.6371C53.9598 51.1877 54.2694 51.3159 54.4976 51.5441C54.7258 51.7723 54.854 52.0818 54.854 52.4045C54.854 52.7273 54.7258 53.0368 54.4976 53.265C54.2694 53.4932 53.9598 53.6214 53.6371 53.6214H53.6376Z" fill="#CCCCCC"/>
<path d="M30.6228 57.2609H19.5075C19.1446 57.2605 18.7966 57.1161 18.54 56.8594C18.2834 56.6027 18.139 56.2546 18.1387 55.8916V42.7702C18.139 42.4072 18.2834 42.0591 18.54 41.8024C18.7966 41.5457 19.1446 41.4013 19.5075 41.401H30.6228C30.9857 41.4014 31.3336 41.5459 31.5902 41.8025C31.8468 42.0592 31.9912 42.4072 31.9917 42.7702V55.8916C31.9913 56.2546 31.8469 56.6027 31.5903 56.8594C31.3337 57.1161 30.9857 57.2605 30.6228 57.2609Z" fill="#CCCCCC"/>
<path d="M53.5319 66.7061H19.1575C18.8348 66.7061 18.5253 66.5779 18.2971 66.3497C18.0689 66.1215 17.9407 65.812 17.9407 65.4893C17.9407 65.1666 18.0689 64.857 18.2971 64.6288C18.5253 64.4006 18.8348 64.2724 19.1575 64.2724H53.5319C53.8546 64.2724 54.1641 64.4006 54.3923 64.6288C54.6205 64.857 54.7487 65.1666 54.7487 65.4893C54.7487 65.812 54.6205 66.1215 54.3923 66.3497C54.1641 66.5779 53.8546 66.7061 53.5319 66.7061Z" fill="#CCCCCC"/>
<path d="M53.5319 73.0986H19.1575C18.8348 73.0986 18.5253 72.9704 18.2971 72.7422C18.0689 72.514 17.9407 72.2045 17.9407 71.8818C17.9407 71.559 18.0689 71.2495 18.2971 71.0213C18.5253 70.7931 18.8348 70.6649 19.1575 70.6649H53.5319C53.8546 70.6649 54.1641 70.7931 54.3923 71.0213C54.6205 71.2495 54.7487 71.559 54.7487 71.8818C54.7487 72.2045 54.6205 72.514 54.3923 72.7422C54.1641 72.9704 53.8546 73.0986 53.5319 73.0986Z" fill="#CCCCCC"/>
<path d="M53.5319 79.4869H19.1575C18.8348 79.4869 18.5253 79.3587 18.2971 79.1305C18.0689 78.9023 17.9407 78.5927 17.9407 78.27C17.9407 77.9473 18.0689 77.6378 18.2971 77.4096C18.5253 77.1813 18.8348 77.0531 19.1575 77.0531H53.5319C53.8546 77.0531 54.1641 77.1813 54.3923 77.4096C54.6205 77.6378 54.7487 77.9473 54.7487 78.27C54.7487 78.5927 54.6205 78.9023 54.3923 79.1305C54.1641 79.3587 53.8546 79.4869 53.5319 79.4869Z" fill="#CCCCCC"/>
<path d="M53.5319 85.8788H19.1575C18.8348 85.8788 18.5253 85.7506 18.2971 85.5224C18.0689 85.2942 17.9407 84.9847 17.9407 84.662C17.9407 84.3392 18.0689 84.0297 18.2971 83.8015C18.5253 83.5733 18.8348 83.4451 19.1575 83.4451H53.5319C53.8546 83.4451 54.1641 83.5733 54.3923 83.8015C54.6205 84.0297 54.7487 84.3392 54.7487 84.662C54.7487 84.9847 54.6205 85.2942 54.3923 85.5224C54.1641 85.7506 53.8546 85.8788 53.5319 85.8788Z" fill="#CCCCCC"/>
<path d="M53.5319 92.2676H19.1575C18.8348 92.2676 18.5253 92.1394 18.2971 91.9112C18.0689 91.683 17.9407 91.3735 17.9407 91.0507C17.9407 90.728 18.0689 90.4185 18.2971 90.1903C18.5253 89.9621 18.8348 89.8339 19.1575 89.8339H53.5319C53.8546 89.8339 54.1641 89.9621 54.3923 90.1903C54.6205 90.4185 54.7487 90.728 54.7487 91.0507C54.7487 91.3735 54.6205 91.683 54.3923 91.9112C54.1641 92.1394 53.8546 92.2676 53.5319 92.2676Z" fill="#CCCCCC"/>
<path d="M0.36614 101.79H71.3445C71.4411 101.79 71.5337 101.751 71.602 101.683C71.6702 101.615 71.7086 101.522 71.7086 101.426C71.7086 101.329 71.6702 101.236 71.602 101.168C71.5337 101.1 71.4411 101.062 71.3445 101.062H0.36614C0.318331 101.061 0.270935 101.07 0.226661 101.089C0.182386 101.107 0.142101 101.133 0.108103 101.167C0.0741041 101.2 0.0470628 101.24 0.0285159 101.284C0.00996907 101.328 0.000277422 101.376 5.87261e-06 101.424C-0.000265677 101.471 0.00888263 101.519 0.0269277 101.563C0.0449729 101.607 0.0715659 101.648 0.10518 101.682C0.138795 101.716 0.178775 101.743 0.222842 101.761C0.266908 101.78 0.314194 101.789 0.362004 101.79H0.36614Z" fill="#CCCCCC"/>
<path d="M230.049 20.2333C235.634 20.2333 240.162 15.7039 240.162 10.1167C240.162 4.52939 235.634 0 230.049 0C224.463 0 219.936 4.52939 219.936 10.1167C219.936 15.7039 224.463 20.2333 230.049 20.2333Z" fill="#CCCCCC"/>
<path d="M229.046 13.9755C228.819 13.9759 228.597 13.9023 228.415 13.7659L228.404 13.7576L226.027 11.9371C225.811 11.7645 225.672 11.5142 225.638 11.2398C225.605 10.9654 225.68 10.6888 225.848 10.4694C226.016 10.2499 226.263 10.1051 226.537 10.066C226.811 10.0268 227.089 10.0965 227.311 10.2601L228.851 11.441L232.489 6.69505C232.659 6.4728 232.911 6.32734 233.188 6.29068C233.466 6.25402 233.747 6.32916 233.969 6.49958L233.969 6.49977L233.946 6.53032L233.97 6.50024C234.191 6.67091 234.337 6.92266 234.373 7.20027C234.41 7.47788 234.335 7.75867 234.165 7.98105L229.886 13.5637C229.787 13.6923 229.66 13.7965 229.514 13.868C229.368 13.9395 229.208 13.9764 229.046 13.976L229.046 13.9755Z" fill="white"/>
<path d="M258.468 33.8373C258.258 33.3386 257.907 32.9125 257.457 32.6116C257.008 32.3107 256.48 32.1481 255.939 32.1441H205.441C204.715 32.1445 204.019 32.433 203.506 32.9465C202.993 33.4599 202.704 34.1561 202.704 34.8822V98.7849C202.704 99.5109 202.993 100.207 203.506 100.721C204.019 101.234 204.715 101.523 205.441 101.523H255.939C256.664 101.522 257.36 101.233 257.873 100.72C258.386 100.207 258.675 99.5108 258.676 98.7849V34.8822C258.677 34.5235 258.606 34.1682 258.468 33.8373ZM258.068 98.7853C258.067 99.3496 257.843 99.8903 257.444 100.289C257.045 100.688 256.504 100.913 255.94 100.914H205.441C205.162 100.914 204.885 100.859 204.627 100.752C204.369 100.645 204.134 100.488 203.936 100.291C203.739 100.093 203.582 99.8582 203.475 99.5999C203.368 99.3417 203.313 99.0649 203.313 98.7853V34.8822C203.314 34.318 203.539 33.7772 203.938 33.3782C204.336 32.9793 204.877 32.7546 205.441 32.7535H255.939C256.364 32.7553 256.78 32.8839 257.132 33.1229C257.484 33.362 257.757 33.7006 257.915 34.0955C257.946 34.1741 257.973 34.2542 257.996 34.3357C258.044 34.5149 258.069 34.6997 258.069 34.8854L258.068 98.7853Z" fill="#CCCCCC"/>
<path d="M247.929 47.2308H232.719C232.396 47.2308 232.087 47.1026 231.858 46.8744C231.63 46.6462 231.502 46.3367 231.502 46.0139C231.502 45.6912 231.63 45.3817 231.858 45.1535C232.087 44.9253 232.396 44.7971 232.719 44.7971H247.929C248.251 44.7971 248.561 44.9253 248.789 45.1535C249.017 45.3817 249.145 45.6912 249.145 46.0139C249.145 46.3367 249.017 46.6462 248.789 46.8744C248.561 47.1026 248.251 47.2308 247.929 47.2308H247.929Z" fill="#CCCCCC"/>
<path d="M247.929 53.6214H232.719C232.396 53.6214 232.087 53.4932 231.858 53.265C231.63 53.0368 231.502 52.7273 231.502 52.4045C231.502 52.0818 231.63 51.7723 231.858 51.5441C232.087 51.3159 232.396 51.1877 232.719 51.1877H247.929C248.251 51.1877 248.561 51.3159 248.789 51.5441C249.017 51.7723 249.145 52.0818 249.145 52.4045C249.145 52.7273 249.017 53.0368 248.789 53.265C248.561 53.4932 248.251 53.6214 247.929 53.6214H247.929Z" fill="#CCCCCC"/>
<path d="M224.914 57.2609H213.799C213.436 57.2605 213.088 57.1161 212.832 56.8594C212.575 56.6027 212.431 56.2546 212.43 55.8916V42.7702C212.431 42.4072 212.575 42.0591 212.832 41.8024C213.088 41.5457 213.436 41.4013 213.799 41.401H224.914C225.277 41.4014 225.625 41.5459 225.882 41.8025C226.138 42.0592 226.283 42.4072 226.283 42.7702V55.8916C226.283 56.2546 226.138 56.6027 225.882 56.8594C225.625 57.1161 225.277 57.2605 224.914 57.2609Z" fill="#CCCCCC"/>
<path d="M247.823 66.7061H213.449C213.126 66.7061 212.817 66.5779 212.589 66.3497C212.36 66.1215 212.232 65.812 212.232 65.4893C212.232 65.1666 212.36 64.857 212.589 64.6288C212.817 64.4006 213.126 64.2724 213.449 64.2724H247.823C248.146 64.2724 248.456 64.4006 248.684 64.6288C248.912 64.857 249.04 65.1666 249.04 65.4893C249.04 65.812 248.912 66.1215 248.684 66.3497C248.456 66.5779 248.146 66.7061 247.823 66.7061Z" fill="#CCCCCC"/>
<path d="M247.823 73.0986H213.449C213.126 73.0986 212.817 72.9704 212.589 72.7422C212.36 72.514 212.232 72.2045 212.232 71.8818C212.232 71.559 212.36 71.2495 212.589 71.0213C212.817 70.7931 213.126 70.6649 213.449 70.6649H247.823C248.146 70.6649 248.456 70.7931 248.684 71.0213C248.912 71.2495 249.04 71.559 249.04 71.8818C249.04 72.2045 248.912 72.514 248.684 72.7422C248.456 72.9704 248.146 73.0986 247.823 73.0986Z" fill="#CCCCCC"/>
<path d="M247.823 79.4869H213.449C213.126 79.4869 212.817 79.3587 212.589 79.1305C212.36 78.9023 212.232 78.5927 212.232 78.27C212.232 77.9473 212.36 77.6378 212.589 77.4096C212.817 77.1813 213.126 77.0531 213.449 77.0531H247.823C248.146 77.0531 248.456 77.1813 248.684 77.4096C248.912 77.6378 249.04 77.9473 249.04 78.27C249.04 78.5927 248.912 78.9023 248.684 79.1305C248.456 79.3587 248.146 79.4869 247.823 79.4869Z" fill="#CCCCCC"/>
<path d="M247.823 85.8788H213.449C213.126 85.8788 212.817 85.7506 212.589 85.5224C212.36 85.2942 212.232 84.9847 212.232 84.662C212.232 84.3392 212.36 84.0297 212.589 83.8015C212.817 83.5733 213.126 83.4451 213.449 83.4451H247.823C248.146 83.4451 248.456 83.5733 248.684 83.8015C248.912 84.0297 249.04 84.3392 249.04 84.662C249.04 84.9847 248.912 85.2942 248.684 85.5224C248.456 85.7506 248.146 85.8788 247.823 85.8788Z" fill="#CCCCCC"/>
<path d="M247.823 92.2676H213.449C213.126 92.2676 212.817 92.1394 212.589 91.9112C212.36 91.683 212.232 91.3735 212.232 91.0507C212.232 90.728 212.36 90.4185 212.589 90.1903C212.817 89.9621 213.126 89.8339 213.449 89.8339H247.823C248.146 89.8339 248.456 89.9621 248.684 90.1903C248.912 90.4185 249.04 90.728 249.04 91.0507C249.04 91.3735 248.912 91.683 248.684 91.9112C248.456 92.1394 248.146 92.2676 247.823 92.2676Z" fill="#CCCCCC"/>
<path d="M194.658 101.79H265.636C265.733 101.79 265.825 101.751 265.893 101.683C265.962 101.615 266 101.522 266 101.426C266 101.329 265.962 101.236 265.893 101.168C265.825 101.1 265.733 101.062 265.636 101.062H194.658C194.61 101.061 194.562 101.07 194.518 101.089C194.474 101.107 194.434 101.133 194.4 101.167C194.366 101.2 194.339 101.24 194.32 101.284C194.301 101.328 194.292 101.376 194.292 101.424C194.291 101.471 194.3 101.519 194.318 101.563C194.336 101.607 194.363 101.648 194.397 101.682C194.43 101.716 194.47 101.743 194.514 101.761C194.558 101.78 194.606 101.789 194.654 101.79H194.658Z" fill="#CCCCCC"/>
<path d="M87.4331 150H177.64C177.762 150 177.88 149.951 177.967 149.864C178.054 149.777 178.102 149.66 178.102 149.537C178.102 149.414 178.054 149.297 177.967 149.21C177.88 149.123 177.762 149.074 177.64 149.074H87.4331C87.3104 149.074 87.1927 149.123 87.1059 149.21C87.0192 149.297 86.9705 149.414 86.9705 149.537C86.9705 149.66 87.0192 149.777 87.1059 149.864C87.1927 149.951 87.3104 150 87.4331 150Z" fill="#3F3D56"/>
</svg>
